<svg width="15" height="15" viewBox="0 0 15 15" fill="none" xmlns="http://www.w3.org/2000/svg">
<g clip-path="url(#clip0_16_610)">
<path d="M0.576915 8.07691H13.0298L7.09326 14.0163C6.98581 14.1244 6.9255 14.2706 6.9255 14.4231C6.9255 14.5755 6.98581 14.7217 7.09326 14.8298C7.20136 14.9372 7.34758 14.9976 7.49999 14.9976C7.65241 14.9976 7.79863 14.9372 7.90672 14.8298L14.8298 7.90672C14.8571 7.87968 14.8813 7.84969 14.9019 7.81729C14.9111 7.80818 14.9198 7.79854 14.9279 7.78845C14.9279 7.76825 14.9481 7.75095 14.9567 7.73075L14.974 7.67306C14.9757 7.65676 14.9757 7.64033 14.974 7.62402C14.9888 7.54975 14.9888 7.4733 14.974 7.39902C14.9757 7.38272 14.9757 7.36629 14.974 7.34999L14.9567 7.29229C14.9567 7.2721 14.9365 7.25479 14.9279 7.2346C14.9203 7.21956 14.9116 7.2051 14.9019 7.19133C14.8813 7.15893 14.8571 7.12894 14.8298 7.10191L7.90672 0.17883C7.855 0.118437 7.79136 0.0693874 7.71978 0.0347586C7.64821 0.0001297 7.57025 -0.019331 7.49079 -0.0223999C7.41134 -0.0254688 7.33211 -0.0120802 7.25808 0.0169239C7.18404 0.045929 7.1168 0.0899239 7.06058 0.146148C7.00436 0.202372 6.96036 0.26961 6.93136 0.343644C6.90235 0.417678 6.88896 0.496908 6.89203 0.576362C6.8951 0.655815 6.91456 0.733776 6.94919 0.805351C6.98382 0.876927 7.03287 0.940573 7.09326 0.992292L13.0298 6.92306H0.576915C0.423905 6.92306 0.277163 6.98384 0.168968 7.09204C0.0607748 7.20023 -7.62939e-06 7.34698 -7.62939e-06 7.49999C-7.62939e-06 7.653 0.0607748 7.79974 0.168968 7.90793C0.277163 8.01613 0.423905 8.07691 0.576915 8.07691Z" fill="#18A34A"/>
</g>
<defs>
<clipPath id="clip0_16_610">
<rect width="15" height="15" fill="white" transform="matrix(-1 0 0 -1 15 15)"/>
</clipPath>
</defs>
</svg>
