<svg width="16" height="15" viewBox="0 0 16 15" fill="none" xmlns="http://www.w3.org/2000/svg">
<g clip-path="url(#clip0_55_964)">
<path d="M1.07691 8.07691H13.5298L7.59326 14.0163C7.48581 14.1244 7.4255 14.2706 7.4255 14.4231C7.4255 14.5755 7.48581 14.7217 7.59326 14.8298C7.70136 14.9372 7.84758 14.9976 7.99999 14.9976C8.15241 14.9976 8.29863 14.9372 8.40672 14.8298L15.3298 7.90672C15.3571 7.87968 15.3813 7.84969 15.4019 7.81729C15.4111 7.80818 15.4198 7.79854 15.4279 7.78845C15.4279 7.76825 15.4481 7.75095 15.4567 7.73075L15.474 7.67306C15.4757 7.65676 15.4757 7.64033 15.474 7.62402C15.4888 7.54975 15.4888 7.4733 15.474 7.39902C15.4757 7.38272 15.4757 7.36629 15.474 7.34999L15.4567 7.29229C15.4567 7.2721 15.4365 7.25479 15.4279 7.2346C15.4203 7.21956 15.4116 7.2051 15.4019 7.19133C15.3813 7.15893 15.3571 7.12894 15.3298 7.10191L8.40672 0.17883C8.355 0.118437 8.29136 0.0693874 8.21978 0.0347586C8.14821 0.0001297 8.07025 -0.019331 7.99079 -0.0223999C7.91134 -0.0254688 7.83211 -0.0120802 7.75808 0.0169239C7.68404 0.045929 7.6168 0.0899239 7.56058 0.146148C7.50436 0.202372 7.46036 0.26961 7.43136 0.343644C7.40235 0.417678 7.38896 0.496908 7.39203 0.576362C7.3951 0.655815 7.41456 0.733776 7.44919 0.805351C7.48382 0.876927 7.53287 0.940573 7.59326 0.992292L13.5298 6.92306H1.07691C0.923905 6.92306 0.777163 6.98384 0.668968 7.09204C0.560775 7.20023 0.499992 7.34698 0.499992 7.49999C0.499992 7.653 0.560775 7.79974 0.668968 7.90793C0.777163 8.01613 0.923905 8.07691 1.07691 8.07691Z" fill="white"/>
</g>
<defs>
<clipPath id="clip0_55_964">
<rect width="15" height="15" fill="white" transform="matrix(-1 0 0 -1 15.5 15)"/>
</clipPath>
</defs>
</svg>
