<svg width="50" height="50" viewBox="0 0 50 50" fill="none" xmlns="http://www.w3.org/2000/svg">
<path d="M4.16666 39.5834C4.16666 43.1251 6.87499 45.8334 10.4167 45.8334H39.5833C43.125 45.8334 45.8333 43.1251 45.8333 39.5834V22.9167H4.16666V39.5834ZM39.5833 8.33342H35.4167V6.25008C35.4167 5.00008 34.5833 4.16675 33.3333 4.16675C32.0833 4.16675 31.25 5.00008 31.25 6.25008V8.33342H18.75V6.25008C18.75 5.00008 17.9167 4.16675 16.6667 4.16675C15.4167 4.16675 14.5833 5.00008 14.5833 6.25008V8.33342H10.4167C6.87499 8.33342 4.16666 11.0417 4.16666 14.5834V18.7501H45.8333V14.5834C45.8333 11.0417 43.125 8.33342 39.5833 8.33342Z" fill="#18A34A"/>
</svg>
