<svg width="50" height="50" viewBox="0 0 50 50" fill="none" xmlns="http://www.w3.org/2000/svg">
<path d="M4.16663 39.5833C4.16663 43.125 6.87496 45.8333 10.4166 45.8333H39.5833C43.125 45.8333 45.8333 43.125 45.8333 39.5833V22.9166H4.16663V39.5833ZM39.5833 8.33329H35.4166V6.24996C35.4166 4.99996 34.5833 4.16663 33.3333 4.16663C32.0833 4.16663 31.25 4.99996 31.25 6.24996V8.33329H18.75V6.24996C18.75 4.99996 17.9166 4.16663 16.6666 4.16663C15.4166 4.16663 14.5833 4.99996 14.5833 6.24996V8.33329H10.4166C6.87496 8.33329 4.16663 11.0416 4.16663 14.5833V18.75H45.8333V14.5833C45.8333 11.0416 43.125 8.33329 39.5833 8.33329Z" fill="#18A34A"/>
</svg>
