<svg width="36" height="35" viewBox="0 0 36 35" fill="none" xmlns="http://www.w3.org/2000/svg">
<path fill-rule="evenodd" clip-rule="evenodd" d="M25.8087 32.4223C22.8627 31.6843 16.8317 29.6034 11.3642 24.1359C5.89679 18.6685 3.81597 12.6376 3.07787 9.69159C2.65369 7.9986 3.41753 6.3649 4.71269 5.43978L8.10805 3.01451C10.0947 1.59548 12.8584 2.07701 14.2481 4.08431L16.3856 7.17197C17.293 8.48263 16.9801 10.279 15.6829 11.2056L13.9784 12.423C14.2364 13.4098 15.0387 15.4361 17.5514 17.9488C20.0641 20.4615 22.0905 21.2638 23.0772 21.5217L24.2946 19.8172C25.2212 18.5202 27.0176 18.2071 28.3282 19.1145L31.416 21.2521C33.4232 22.6419 33.9047 25.4054 32.4856 27.3921L30.0604 30.7875C29.1353 32.0827 27.5016 32.8466 25.8087 32.4223ZM13.4266 22.0736C18.3987 27.0456 23.8856 28.9337 26.5174 29.5932C26.9021 29.6894 27.3672 29.5399 27.687 29.0922L30.1123 25.6968C30.5853 25.0347 30.4249 24.1135 29.7556 23.6502L26.6681 21.5125L25.3615 23.3417C24.8276 24.0893 23.8402 24.6755 22.6905 24.4275C21.2555 24.1179 18.6027 23.1249 15.4891 20.0112C12.3754 16.8975 11.3824 14.2448 11.0727 12.8098C10.8247 11.66 11.411 10.6726 12.1585 10.1387L13.9876 8.83217L11.85 5.74451C11.3868 5.0754 10.4655 4.91489 9.80333 5.3879L6.40797 7.81317C5.9602 8.133 5.81071 8.59806 5.90709 8.98274C6.56652 11.6147 8.45462 17.1015 13.4266 22.0736Z" fill="white" stroke="white" stroke-width="0.5"/>
</svg>
