<svg width="60" height="60" viewBox="0 0 60 60" fill="none" xmlns="http://www.w3.org/2000/svg">
<path fill-rule="evenodd" clip-rule="evenodd" d="M55 30C55 43.807 43.807 55 30 55C16.1929 55 5 43.807 5 30C5 16.1929 16.1929 5 30 5C43.807 5 55 16.1929 55 30ZM40.0758 22.4242C40.808 23.1564 40.808 24.3436 40.0758 25.0758L27.5758 37.5758C26.8435 38.308 25.6565 38.308 24.9242 37.5758L19.9242 32.5758C19.192 31.8435 19.192 30.6565 19.9242 29.9243C20.6564 29.192 21.8436 29.192 22.5758 29.9243L26.25 33.5983L31.837 28.0113L37.4243 22.4242C38.1565 21.692 39.3435 21.692 40.0758 22.4242Z" fill="#18A34A"/>
</svg>
