<svg width="48" height="47" viewBox="0 0 48 47" fill="none" xmlns="http://www.w3.org/2000/svg">
<path d="M22.7439 40.5044C23.146 40.7139 23.3471 40.8187 23.626 40.8729C23.8433 40.9152 24.1567 40.9152 24.3741 40.8729C24.6529 40.8187 24.854 40.7139 25.2561 40.5044C28.9742 38.5672 39.6667 32.2365 39.6667 23.5002V16.093C39.6667 14.5273 39.6667 13.7444 39.4105 13.0715C39.1843 12.477 38.8168 11.9466 38.3395 11.526C37.7994 11.05 37.0664 10.7751 35.6004 10.2253L25.1002 6.28777C24.6931 6.1351 24.4896 6.05876 24.2801 6.02848C24.0944 6.00165 23.9056 6.00165 23.72 6.02848C23.5104 6.05876 23.307 6.1351 22.8998 6.28777L12.3996 10.2253C10.9336 10.7751 10.2006 11.05 9.66043 11.526C9.18322 11.9466 8.81562 12.477 8.58942 13.0715C8.33334 13.7444 8.33334 14.5273 8.33334 16.093V23.5002C8.33334 32.2365 19.0258 38.5672 22.7439 40.5044Z" stroke="#1CBA9F" stroke-width="3" stroke-linecap="round" stroke-linejoin="round"/>
</svg>
