<svg width="41" height="41" viewBox="0 0 41 41" fill="none" xmlns="http://www.w3.org/2000/svg">
<path d="M19.2818 7.85184C19.6676 6.9862 19.8606 6.55339 20.1293 6.4201C20.3626 6.3043 20.6366 6.3043 20.87 6.4201C21.1386 6.55339 21.3316 6.9862 21.7175 7.85184L24.7908 14.7467C24.905 15.0026 24.962 15.1306 25.0503 15.2286C25.1283 15.3153 25.2238 15.3846 25.3303 15.4321C25.4508 15.4857 25.5901 15.5004 25.8688 15.5298L33.376 16.3222C34.3185 16.4217 34.7896 16.4714 34.9995 16.6857C35.1816 16.8719 35.2663 17.1325 35.2283 17.3903C35.1846 17.6869 34.8326 18.0041 34.1286 18.6386L28.5208 23.6923C28.3128 23.8798 28.2086 23.9736 28.1428 24.0878C28.0845 24.1889 28.048 24.3011 28.0358 24.4171C28.022 24.5483 28.051 24.6853 28.1091 24.9594L29.6755 32.3439C29.8722 33.2711 29.9705 33.7346 29.8315 34.0003C29.7106 34.2313 29.489 34.3923 29.2321 34.4358C28.9365 34.4858 28.526 34.2491 27.705 33.7756L21.1658 30.0039C20.9231 29.8639 20.8018 29.7941 20.6728 29.7666C20.5586 29.7424 20.4406 29.7424 20.3265 29.7666C20.1975 29.7941 20.0761 29.8639 19.8335 30.0039L13.2943 33.7756C12.4734 34.2491 12.0629 34.4858 11.7672 34.4358C11.5104 34.3923 11.2886 34.2313 11.1679 34.0003C11.0289 33.7346 11.1272 33.2711 11.3239 32.3439L12.8901 24.9594C12.9483 24.6853 12.9773 24.5483 12.9635 24.4171C12.9513 24.3011 12.9149 24.1889 12.8565 24.0878C12.7906 23.9736 12.6866 23.8798 12.4784 23.6923L6.87075 18.6386C6.16673 18.0041 5.81471 17.6869 5.77095 17.3903C5.73295 17.1325 5.81763 16.8719 5.99986 16.6857C6.20966 16.4714 6.68091 16.4217 7.62341 16.3222L15.1306 15.5298C15.4092 15.5004 15.5485 15.4857 15.669 15.4321C15.7755 15.3846 15.871 15.3153 15.9491 15.2286C16.0373 15.1306 16.0944 15.0026 16.2084 14.7467L19.2818 7.85184Z" fill="#FACC15" stroke="#FACC15" stroke-width="2" stroke-linecap="round" stroke-linejoin="round"/>
</svg>
