<svg width="41" height="40" viewBox="0 0 41 40" fill="none" xmlns="http://www.w3.org/2000/svg">
<path d="M19.2819 7.35184C19.6677 6.4862 19.8607 6.05339 20.1294 5.9201C20.3627 5.8043 20.6367 5.8043 20.87 5.9201C21.1387 6.05339 21.3317 6.4862 21.7175 7.35184L24.7909 14.2467C24.905 14.5026 24.962 14.6306 25.0504 14.7286C25.1284 14.8153 25.2239 14.8846 25.3304 14.9321C25.4509 14.9857 25.5902 15.0004 25.8689 15.0298L33.376 15.8222C34.3185 15.9217 34.7897 15.9714 34.9995 16.1857C35.1817 16.3719 35.2664 16.6325 35.2284 16.8903C35.1847 17.1869 34.8327 17.5041 34.1287 18.1386L28.5209 23.1923C28.3129 23.3798 28.2087 23.4736 28.1429 23.5878C28.0845 23.6889 28.048 23.8011 28.0359 23.9171C28.022 24.0483 28.051 24.1853 28.1092 24.4594L29.6755 31.8439C29.8722 32.7711 29.9705 33.2346 29.8315 33.5003C29.7107 33.7313 29.489 33.8923 29.2322 33.9358C28.9365 33.9858 28.526 33.7491 27.705 33.2756L21.1659 29.5039C20.9232 29.3639 20.8019 29.2941 20.6729 29.2666C20.5587 29.2424 20.4407 29.2424 20.3265 29.2666C20.1975 29.2941 20.0762 29.3639 19.8335 29.5039L13.2944 33.2756C12.4734 33.7491 12.063 33.9858 11.7673 33.9358C11.5104 33.8923 11.2887 33.7313 11.168 33.5003C11.029 33.2346 11.1273 32.7711 11.3239 31.8439L12.8902 24.4594C12.9483 24.1853 12.9774 24.0483 12.9636 23.9171C12.9514 23.8011 12.9149 23.6889 12.8566 23.5878C12.7907 23.4736 12.6866 23.3798 12.4785 23.1923L6.87081 18.1386C6.16679 17.5041 5.81477 17.1869 5.77101 16.8903C5.73301 16.6325 5.81769 16.3719 5.99993 16.1857C6.20973 15.9714 6.68097 15.9217 7.62347 15.8222L15.1306 15.0298C15.4093 15.0004 15.5486 14.9857 15.669 14.9321C15.7756 14.8846 15.871 14.8153 15.9491 14.7286C16.0374 14.6306 16.0944 14.5026 16.2085 14.2467L19.2819 7.35184Z" fill="#9C9C9C" stroke="#9C9C9C" stroke-width="2" stroke-linecap="round" stroke-linejoin="round"/>
</svg>
