<svg width="24" height="23" viewBox="0 0 24 23" fill="none" xmlns="http://www.w3.org/2000/svg">
<path d="M22.1993 2.63665C21.5424 1.84191 20.7175 1.20274 19.7839 0.765199C18.8503 0.327654 17.8313 0.102621 16.8002 0.106313C15.0361 0.0528974 13.3186 0.677637 12.0011 1.85199C10.6836 0.677637 8.9661 0.0528974 7.20199 0.106313C6.17095 0.102621 5.15193 0.327654 4.21834 0.765199C3.28474 1.20274 2.45981 1.84191 1.80298 2.63665C0.659584 4.0236 -0.536598 6.53474 0.256458 10.6272C1.52223 17.1624 11.0137 22.5254 11.4144 22.745C11.5931 22.8446 11.7942 22.8969 11.9987 22.8969C12.2032 22.8969 12.4044 22.8446 12.583 22.745C12.9861 22.5206 22.4776 17.1576 23.741 10.6272C24.5388 6.53474 23.3426 4.0236 22.1993 2.63665ZM21.3906 10.1713C20.4956 14.7916 13.9904 19.0892 12.0011 20.3106C9.19843 18.6189 3.43228 14.3717 2.61763 10.1713C2.00214 6.99665 2.84438 5.15259 3.66024 4.16397C4.09168 3.6434 4.63299 3.22476 5.24533 2.93809C5.85767 2.65142 6.52587 2.50382 7.20199 2.50587C7.92413 2.45172 8.64798 2.58561 9.30296 2.89449C9.95795 3.20337 10.5217 3.67671 10.9393 4.26835C11.0423 4.45784 11.1942 4.61624 11.3792 4.72705C11.5642 4.83786 11.7756 4.89702 11.9912 4.89837C12.2069 4.89972 12.4189 4.8432 12.6053 4.73471C12.7917 4.62622 12.9456 4.46973 13.0509 4.28155C13.4677 3.6853 14.0327 3.20796 14.6901 2.89658C15.3476 2.58521 16.0749 2.45055 16.8002 2.50587C17.4778 2.50258 18.1476 2.64958 18.7615 2.9363C19.3754 3.22301 19.918 3.6423 20.3504 4.16397C21.1638 5.15259 22.0061 6.99665 21.3906 10.1713Z" fill="#538FC9"/>
</svg>
