<svg width="48" height="47" viewBox="0 0 48 47" fill="none" xmlns="http://www.w3.org/2000/svg">
<path d="M36.8219 13.8899C36.0727 12.9833 35.1317 12.2543 34.0668 11.7552C33.0019 11.2561 31.8395 10.9994 30.6634 11.0036C28.6512 10.9427 26.6921 11.6553 25.1893 12.9948C23.6864 11.6553 21.7273 10.9427 19.7151 11.0036C18.539 10.9994 17.3766 11.2561 16.3117 11.7552C15.2468 12.2543 14.3058 12.9833 13.5566 13.8899C12.2524 15.4719 10.8879 18.3363 11.7925 23.0044C13.2364 30.4589 24.0629 36.5763 24.52 36.8267C24.7238 36.9404 24.9532 37 25.1865 37C25.4198 37 25.6492 36.9404 25.853 36.8267C26.3128 36.5708 37.1394 30.4534 38.5805 23.0044C39.4906 18.3363 38.1261 15.4719 36.8219 13.8899ZM35.8995 22.4844C34.8786 27.7546 27.4583 32.6568 25.1893 34.05C21.9923 32.1203 15.4151 27.2756 14.4858 22.4844C13.7838 18.8632 14.7445 16.7597 15.6751 15.632C16.1672 15.0382 16.7847 14.5607 17.4832 14.2337C18.1816 13.9067 18.9438 13.7384 19.7151 13.7407C20.5388 13.6789 21.3644 13.8317 22.1116 14.184C22.8587 14.5363 23.5018 15.0762 23.9781 15.7511C24.0955 15.9672 24.2688 16.1479 24.4799 16.2743C24.6909 16.4007 24.932 16.4682 25.178 16.4697C25.424 16.4713 25.6659 16.4068 25.8785 16.2831C26.0911 16.1593 26.2666 15.9808 26.3867 15.7662C26.8621 15.086 27.5066 14.5415 28.2565 14.1864C29.0065 13.8312 29.836 13.6776 30.6634 13.7407C31.4363 13.7369 32.2003 13.9046 32.9006 14.2317C33.6008 14.5587 34.2198 15.037 34.713 15.632C35.6409 16.7597 36.6016 18.8632 35.8995 22.4844Z" fill="#18A34A"/>
</svg>
