<svg width="60" height="60" viewBox="0 0 60 60" fill="none" xmlns="http://www.w3.org/2000/svg">
<g clip-path="url(#clip0_16_598)">
<path d="M40 27.5C44.15 27.5 47.475 24.15 47.475 20C47.475 15.85 44.15 12.5 40 12.5C35.85 12.5 32.5 15.85 32.5 20C32.5 24.15 35.85 27.5 40 27.5ZM20 27.5C24.15 27.5 27.475 24.15 27.475 20C27.475 15.85 24.15 12.5 20 12.5C15.85 12.5 12.5 15.85 12.5 20C12.5 24.15 15.85 27.5 20 27.5ZM20 32.5C14.175 32.5 2.5 35.425 2.5 41.25V47.5H37.5V41.25C37.5 35.425 25.825 32.5 20 32.5ZM40 32.5C39.275 32.5 38.45 32.55 37.575 32.625C40.475 34.725 42.5 37.55 42.5 41.25V47.5H57.5V41.25C57.5 35.425 45.825 32.5 40 32.5Z" fill="#18A34A"/>
</g>
<defs>
<clipPath id="clip0_16_598">
<rect width="60" height="60" fill="white"/>
</clipPath>
</defs>
</svg>
