<svg width="61" height="60" viewBox="0 0 61 60" fill="none" xmlns="http://www.w3.org/2000/svg">
<path d="M45.8259 17.7318C44.8694 16.5745 43.6682 15.6438 42.3087 15.0067C40.9493 14.3695 39.4654 14.0418 37.964 14.0472C35.3952 13.9694 32.8942 14.8792 30.9757 16.5892C29.0572 14.8792 26.5562 13.9694 23.9874 14.0472C22.486 14.0418 21.0021 14.3695 19.6427 15.0067C18.2832 15.6438 17.082 16.5745 16.1255 17.7318C14.4605 19.7514 12.7187 23.4081 13.8735 29.3674C15.7167 38.8837 29.5379 46.6932 30.1214 47.0129C30.3815 47.158 30.6744 47.2341 30.9722 47.2341C31.27 47.2341 31.5629 47.158 31.823 47.0129C32.4101 46.6862 46.2312 38.8768 48.0709 29.3674C49.2327 23.4081 47.4909 19.7514 45.8259 17.7318ZM44.6484 28.7035C43.3451 35.4315 33.8724 41.6896 30.9757 43.4681C26.8945 41.0047 18.498 34.82 17.3118 28.7035C16.4155 24.0807 17.642 21.3954 18.83 19.9558C19.4582 19.1978 20.2465 18.5882 21.1381 18.1708C22.0298 17.7533 23.0028 17.5384 23.9874 17.5414C25.0389 17.4625 26.093 17.6575 27.0467 18.1073C28.0005 18.5571 28.8215 19.2463 29.4295 20.1078C29.5795 20.3838 29.8007 20.6144 30.0701 20.7758C30.3395 20.9371 30.6473 21.0233 30.9613 21.0252C31.2753 21.0272 31.5841 20.9449 31.8555 20.7869C32.1269 20.629 32.351 20.4011 32.5044 20.1271C33.1113 19.2588 33.934 18.5637 34.8914 18.1103C35.8488 17.6569 36.9078 17.4608 37.964 17.5414C38.9506 17.5366 39.926 17.7506 40.82 18.1681C41.7139 18.5856 42.5041 19.1962 43.1337 19.9558C44.3182 21.3954 45.5446 24.0807 44.6484 28.7035Z" fill="#18A34A"/>
</svg>
