<svg width="81" height="44" viewBox="0 0 81 44" fill="none" xmlns="http://www.w3.org/2000/svg">
<path d="M2.044 12V3.6H5.848C6.392 3.6 6.88 3.716 7.312 3.948C7.744 4.18 8.084 4.5 8.332 4.908C8.588 5.308 8.716 5.768 8.716 6.288C8.716 6.816 8.588 7.288 8.332 7.704C8.084 8.12 7.744 8.452 7.312 8.7C6.88 8.94 6.392 9.06 5.848 9.06H4V12H2.044ZM6.712 12L4.576 8.196L6.676 7.896L9.052 12.012L6.712 12ZM4 7.464H5.668C5.876 7.464 6.056 7.42 6.208 7.332C6.368 7.236 6.488 7.108 6.568 6.948C6.656 6.788 6.7 6.604 6.7 6.396C6.7 6.18 6.648 5.992 6.544 5.832C6.448 5.672 6.308 5.548 6.124 5.46C5.948 5.364 5.736 5.316 5.488 5.316H4V7.464ZM10.3372 12V10.272H11.7532V5.328H10.3372V3.6H15.2212V5.328H13.8052V10.272H15.2212V12H10.3372ZM20.8737 12.12C20.2017 12.12 19.5937 12.012 19.0497 11.796C18.5137 11.58 18.0497 11.276 17.6577 10.884C17.2657 10.492 16.9657 10.032 16.7577 9.504C16.5497 8.976 16.4457 8.4 16.4457 7.776C16.4457 7.152 16.5577 6.576 16.7817 6.048C17.0057 5.52 17.3177 5.06 17.7177 4.668C18.1257 4.276 18.6057 3.972 19.1577 3.756C19.7177 3.54 20.3297 3.432 20.9937 3.432C21.4497 3.432 21.8817 3.492 22.2897 3.612C22.7057 3.732 23.0817 3.896 23.4177 4.104C23.7617 4.312 24.0457 4.548 24.2697 4.812L23.0097 6.132C22.7217 5.86 22.4097 5.648 22.0737 5.496C21.7457 5.336 21.3737 5.256 20.9577 5.256C20.6137 5.256 20.2937 5.32 19.9977 5.448C19.7097 5.568 19.4537 5.744 19.2297 5.976C19.0137 6.2 18.8457 6.468 18.7257 6.78C18.6057 7.084 18.5457 7.416 18.5457 7.776C18.5457 8.136 18.6097 8.468 18.7377 8.772C18.8657 9.076 19.0417 9.344 19.2657 9.576C19.4977 9.8 19.7657 9.976 20.0697 10.104C20.3737 10.232 20.7017 10.296 21.0537 10.296C21.3017 10.296 21.5297 10.26 21.7377 10.188C21.9537 10.108 22.1417 10.004 22.3017 9.876C22.4697 9.74 22.5977 9.584 22.6857 9.408C22.7817 9.224 22.8297 9.028 22.8297 8.82V8.508L23.0937 8.916H20.8017V7.296H24.7497C24.7657 7.384 24.7777 7.504 24.7857 7.656C24.7937 7.808 24.7977 7.956 24.7977 8.1C24.8057 8.236 24.8097 8.344 24.8097 8.424C24.8097 8.968 24.7097 9.468 24.5097 9.924C24.3177 10.372 24.0417 10.76 23.6817 11.088C23.3297 11.416 22.9137 11.672 22.4337 11.856C21.9537 12.032 21.4337 12.12 20.8737 12.12ZM31.5687 12V3.6H33.6207V12H31.5687ZM26.3487 12V3.6H28.4007V12H26.3487ZM27.1647 8.736V6.888H32.6487V8.736H27.1647ZM37.536 12V5.412H35.064V3.6H42.144V5.412H39.588V12H37.536ZM49.2313 12V5.412H46.7593V3.6H53.8393V5.412H51.2833V12H49.2313ZM55.1146 12V10.272H56.5306V5.328H55.1146V3.6H59.9986V5.328H58.5826V10.272H59.9986V12H55.1146ZM61.9268 12V3.6H63.7628L66.8108 8.556L65.5148 8.544L68.5988 3.6H70.3748V12H68.3828V9.456C68.3828 8.72 68.3988 8.06 68.4308 7.476C68.4708 6.884 68.5348 6.304 68.6228 5.736L68.8508 6.36L66.5348 9.948H65.7188L63.4508 6.384L63.6788 5.736C63.7748 6.272 63.8388 6.828 63.8708 7.404C63.9108 7.972 63.9308 8.656 63.9308 9.456V12H61.9268ZM72.462 12V3.6H78.318V5.352H74.466V10.248H78.45V12H72.462ZM73.434 8.568V6.888H77.79V8.568H73.434ZM2.044 26V17.6H3.88L6.928 22.556L5.632 22.544L8.716 17.6H10.492V26H8.5V23.456C8.5 22.72 8.516 22.06 8.548 21.476C8.588 20.884 8.652 20.304 8.74 19.736L8.968 20.36L6.652 23.948H5.836L3.568 20.384L3.796 19.736C3.892 20.272 3.956 20.828 3.988 21.404C4.028 21.972 4.048 22.656 4.048 23.456V26H2.044ZM12.5792 26V17.6H18.4352V19.352H14.5832V24.248H18.5672V26H12.5792ZM13.5512 22.568V20.888H17.9072V22.568H13.5512ZM20.3135 26V17.6H23.8535C24.4695 17.6 25.0335 17.704 25.5455 17.912C26.0575 18.112 26.4975 18.4 26.8655 18.776C27.2335 19.144 27.5175 19.588 27.7175 20.108C27.9175 20.62 28.0175 21.184 28.0175 21.8C28.0175 22.424 27.9175 22.992 27.7175 23.504C27.5175 24.016 27.2335 24.46 26.8655 24.836C26.4975 25.204 26.0575 25.492 25.5455 25.7C25.0415 25.9 24.4775 26 23.8535 26H20.3135ZM22.3655 24.584L22.1015 24.188H23.7935C24.1215 24.188 24.4175 24.132 24.6815 24.02C24.9455 23.908 25.1695 23.748 25.3535 23.54C25.5455 23.324 25.6895 23.072 25.7855 22.784C25.8895 22.488 25.9415 22.16 25.9415 21.8C25.9415 21.44 25.8895 21.116 25.7855 20.828C25.6895 20.532 25.5455 20.28 25.3535 20.072C25.1695 19.856 24.9455 19.692 24.6815 19.58C24.4175 19.468 24.1215 19.412 23.7935 19.412H22.0655L22.3655 19.04V24.584ZM29.2513 26V24.272H30.6673V19.328H29.2513V17.6H34.1353V19.328H32.7193V24.272H34.1353V26H29.2513ZM39.7038 26.12C39.0718 26.12 38.4878 26.016 37.9518 25.808C37.4238 25.592 36.9638 25.292 36.5718 24.908C36.1878 24.516 35.8878 24.056 35.6718 23.528C35.4638 22.992 35.3598 22.408 35.3598 21.776C35.3598 21.152 35.4678 20.576 35.6838 20.048C35.9078 19.52 36.2198 19.06 36.6198 18.668C37.0198 18.276 37.4878 17.972 38.0238 17.756C38.5678 17.54 39.1558 17.432 39.7878 17.432C40.1878 17.432 40.5798 17.484 40.9638 17.588C41.3478 17.692 41.7038 17.848 42.0318 18.056C42.3678 18.256 42.6558 18.5 42.8958 18.788L41.6358 20.216C41.3878 19.944 41.1078 19.732 40.7958 19.58C40.4918 19.428 40.1518 19.352 39.7758 19.352C39.4558 19.352 39.1518 19.408 38.8638 19.52C38.5838 19.632 38.3398 19.796 38.1318 20.012C37.9238 20.228 37.7598 20.484 37.6398 20.78C37.5198 21.076 37.4598 21.412 37.4598 21.788C37.4598 22.156 37.5158 22.492 37.6278 22.796C37.7478 23.092 37.9158 23.348 38.1318 23.564C38.3558 23.772 38.6198 23.932 38.9238 24.044C39.2358 24.156 39.5798 24.212 39.9558 24.212C40.2038 24.212 40.4398 24.18 40.6638 24.116C40.8958 24.044 41.1118 23.944 41.3118 23.816C41.5118 23.688 41.6838 23.544 41.8278 23.384L42.8238 24.968C42.6318 25.184 42.3678 25.38 42.0318 25.556C41.7038 25.732 41.3358 25.872 40.9278 25.976C40.5278 26.072 40.1198 26.12 39.7038 26.12ZM43.1641 26L46.4881 17.6H48.2281L51.5281 26H49.4641L47.8681 21.74C47.8121 21.572 47.7481 21.392 47.6761 21.2C47.6121 21.008 47.5481 20.808 47.4841 20.6C47.4201 20.392 47.3601 20.192 47.3041 20C47.2481 19.808 47.2001 19.628 47.1601 19.46L47.5081 19.448C47.4601 19.648 47.4081 19.844 47.3521 20.036C47.2961 20.228 47.2361 20.42 47.1721 20.612C47.1081 20.804 47.0401 20.996 46.9681 21.188C46.9041 21.372 46.8361 21.564 46.7641 21.764L45.1801 26H43.1641ZM44.7481 24.392L45.3961 22.832H49.2361L49.8841 24.392H44.7481ZM52.5753 26V17.6H54.6273V24.188H58.3713V26H52.5753ZM62.6955 26.12C61.8635 26.12 61.1595 25.976 60.5835 25.688C60.0155 25.392 59.5275 24.976 59.1195 24.44L60.3675 23.036C60.7595 23.572 61.1555 23.932 61.5555 24.116C61.9555 24.3 62.3675 24.392 62.7915 24.392C63.0075 24.392 63.1995 24.364 63.3675 24.308C63.5435 24.252 63.6795 24.172 63.7755 24.068C63.8795 23.956 63.9315 23.824 63.9315 23.672C63.9315 23.552 63.8995 23.444 63.8355 23.348C63.7795 23.252 63.6995 23.168 63.5955 23.096C63.4915 23.024 63.3715 22.96 63.2355 22.904C63.0995 22.84 62.9475 22.788 62.7795 22.748C62.6195 22.708 62.4555 22.672 62.2875 22.64C61.8235 22.544 61.4195 22.42 61.0755 22.268C60.7395 22.108 60.4555 21.92 60.2235 21.704C59.9995 21.48 59.8315 21.228 59.7195 20.948C59.6075 20.66 59.5515 20.336 59.5515 19.976C59.5515 19.464 59.6955 19.016 59.9835 18.632C60.2795 18.248 60.6675 17.948 61.1475 17.732C61.6275 17.516 62.1475 17.408 62.7075 17.408C63.5235 17.408 64.1795 17.54 64.6755 17.804C65.1795 18.06 65.5795 18.416 65.8755 18.872L64.6035 20.108C64.3555 19.788 64.0715 19.548 63.7515 19.388C63.4395 19.228 63.1115 19.148 62.7675 19.148C62.5355 19.148 62.3315 19.176 62.1555 19.232C61.9795 19.288 61.8435 19.372 61.7475 19.484C61.6595 19.588 61.6155 19.716 61.6155 19.868C61.6155 19.996 61.6515 20.112 61.7235 20.216C61.8035 20.312 61.9115 20.396 62.0475 20.468C62.1835 20.54 62.3395 20.604 62.5155 20.66C62.6915 20.708 62.8755 20.748 63.0675 20.78C63.5075 20.868 63.9035 20.984 64.2555 21.128C64.6155 21.272 64.9235 21.452 65.1795 21.668C65.4355 21.876 65.6315 22.124 65.7675 22.412C65.9115 22.692 65.9835 23.016 65.9835 23.384C65.9835 23.96 65.8435 24.452 65.5635 24.86C65.2835 25.268 64.8955 25.58 64.3995 25.796C63.9035 26.012 63.3355 26.12 62.6955 26.12Z" fill="#0B580E"/>
<path d="M6.01562 39.1016H3.2207L2.37695 41H0.888672L4.87305 32.4102H6.47852L7.62109 41H6.25L6.01562 39.1016ZM5.83398 37.6719L5.42969 34.2148L3.87695 37.6719H5.83398ZM8.48828 41L9.95898 32.4102H11.3418L9.86523 41H8.48828ZM16.5742 41H15.2793L15.0273 37.0391L13.4688 41H12.1914L11.5527 34.7773H12.7773L13.1348 38.9492L14.7227 34.7773H15.9766L16.1523 38.9492L17.7344 34.7773H19.1172L16.5742 41ZM20.8516 36.541L19.5039 36.4004C19.6641 35.8262 19.9414 35.3887 20.3359 35.0879C20.7305 34.7871 21.2305 34.6367 21.8359 34.6367C22.4531 34.6367 22.9277 34.791 23.2598 35.0996C23.5918 35.4043 23.7578 35.8105 23.7578 36.3184C23.7578 36.498 23.7441 36.6895 23.7168 36.8926C23.6934 37.0957 23.5996 37.6504 23.4355 38.5566C23.2988 39.3027 23.2305 39.8242 23.2305 40.1211C23.2305 40.3906 23.2676 40.6836 23.3418 41H22.0059C21.9512 40.7734 21.918 40.5391 21.9062 40.2969C21.7031 40.5703 21.4688 40.7793 21.2031 40.9238C20.9414 41.0684 20.6797 41.1406 20.418 41.1406C20.0039 41.1406 19.6562 40.9766 19.375 40.6484C19.0938 40.3203 18.9531 39.8828 18.9531 39.3359C18.9531 38.707 19.1133 38.2227 19.4336 37.8828C19.75 37.543 20.2812 37.3379 21.0273 37.2676C21.6836 37.2012 22.123 37.1211 22.3457 37.0273C22.4043 36.7891 22.4336 36.5996 22.4336 36.459C22.4336 36.2715 22.3691 36.1211 22.2402 36.0078C22.1152 35.8906 21.9434 35.832 21.7246 35.832C21.248 35.832 20.957 36.0684 20.8516 36.541ZM22.1641 38.0996C22.0781 38.127 21.9668 38.1523 21.8301 38.1758C21.1855 38.2695 20.7598 38.3965 20.5527 38.5566C20.3496 38.7129 20.248 38.9238 20.248 39.1895C20.248 39.3965 20.3066 39.5645 20.4238 39.6934C20.5449 39.8223 20.6973 39.8867 20.8809 39.8867C21.0723 39.8867 21.2559 39.834 21.4316 39.7285C21.6074 39.6191 21.748 39.4688 21.8535 39.2773C21.959 39.082 22.0488 38.7637 22.123 38.3223L22.1641 38.0996ZM24.8066 34.7773H26.1777L26.5234 37.877C26.6094 38.6699 26.6582 39.2285 26.6699 39.5527C26.8496 38.9121 27.0957 38.2402 27.4082 37.5371L28.6328 34.7773H30.0918L26.9395 41.6094C26.6426 42.25 26.4141 42.6777 26.2539 42.8926C26.0938 43.1113 25.9121 43.2715 25.709 43.373C25.5098 43.4746 25.2832 43.5254 25.0293 43.5254C24.7402 43.5254 24.4121 43.4629 24.0449 43.3379L24.168 42.084C24.332 42.1426 24.4922 42.1719 24.6484 42.1719C25.0703 42.1719 25.4199 41.7812 25.6973 41L24.8066 34.7773ZM29.6699 39.2598L31.0059 39.002C31.123 39.3535 31.2715 39.5996 31.4512 39.7402C31.6309 39.877 31.8691 39.9453 32.166 39.9453C32.4512 39.9453 32.6816 39.877 32.8574 39.7402C33.0332 39.6035 33.1211 39.4434 33.1211 39.2598C33.1211 39.1348 33.084 39.0293 33.0098 38.9434C32.9316 38.8613 32.7441 38.7617 32.4473 38.6445C31.623 38.3125 31.1113 38.0508 30.9121 37.8594C30.5957 37.5508 30.4375 37.1484 30.4375 36.6523C30.4375 36.0664 30.6445 35.584 31.0586 35.2051C31.4727 34.8262 32.0391 34.6367 32.7578 34.6367C33.9766 34.6367 34.6836 35.1777 34.8789 36.2598L33.6074 36.5293C33.459 36.0371 33.1035 35.791 32.541 35.791C32.2754 35.791 32.0742 35.8457 31.9375 35.9551C31.8008 36.0645 31.7324 36.2031 31.7324 36.3711C31.7324 36.5117 31.7852 36.6309 31.8906 36.7285C31.9688 36.8027 32.2383 36.9219 32.6992 37.0859C33.3594 37.3203 33.8027 37.5488 34.0293 37.7715C34.3613 38.0957 34.5273 38.4902 34.5273 38.9551C34.5273 39.584 34.3145 40.1055 33.8887 40.5195C33.4629 40.9336 32.8984 41.1406 32.1953 41.1406C30.8125 41.1406 29.9707 40.5137 29.6699 39.2598ZM38.2656 38.416C38.2656 37.3965 38.4961 36.5293 38.957 35.8145C39.4688 35.0293 40.209 34.6367 41.1777 34.6367C41.9043 34.6367 42.4824 34.8828 42.9121 35.375C43.3457 35.8672 43.5625 36.5527 43.5625 37.4316C43.5625 38.4629 43.293 39.3398 42.7539 40.0625C42.2188 40.7812 41.5176 41.1406 40.6504 41.1406C39.9434 41.1406 39.3691 40.8965 38.9277 40.4082C38.4863 39.9199 38.2656 39.2559 38.2656 38.416ZM42.1973 37.2148C42.1973 36.8047 42.0996 36.4824 41.9043 36.248C41.7129 36.0137 41.4688 35.8965 41.1719 35.8965C40.9219 35.8965 40.6875 35.9824 40.4688 36.1543C40.25 36.3262 40.0586 36.625 39.8945 37.0508C39.7305 37.4766 39.6484 37.918 39.6484 38.375C39.6484 38.8398 39.748 39.2012 39.9473 39.459C40.1504 39.7168 40.4004 39.8457 40.6973 39.8457C41.0723 39.8457 41.3906 39.6465 41.6523 39.248C42.0156 38.7012 42.1973 38.0234 42.1973 37.2148ZM45.1562 34.7773H46.4629L46.3281 35.5859C46.668 35.2305 46.9785 34.9844 47.2598 34.8477C47.5449 34.707 47.8379 34.6367 48.1387 34.6367C48.5488 34.6367 48.877 34.7793 49.123 35.0645C49.3691 35.3496 49.4922 35.7402 49.4922 36.2363C49.4922 36.4512 49.4414 36.8633 49.3398 37.4727L48.7363 41H47.3535L47.9629 37.4727C48.0527 36.9453 48.0977 36.6289 48.0977 36.5234C48.0977 36.3008 48.043 36.1309 47.9336 36.0137C47.8281 35.8926 47.6895 35.832 47.5176 35.832C47.3301 35.832 47.1387 35.9062 46.9434 36.0547C46.6621 36.2656 46.4531 36.5176 46.3164 36.8105C46.1797 37.0996 46.043 37.6445 45.9062 38.4453L45.4668 41H44.0898L45.1562 34.7773ZM53.1719 36.0254L53.3828 34.7773H54.0566L54.2266 33.7812L55.8027 32.6211L55.4336 34.7773H56.2773L56.0664 36.0254H55.2227L54.7715 38.6328C54.6934 39.1016 54.6543 39.373 54.6543 39.4473C54.6543 39.584 54.6895 39.6855 54.7598 39.752C54.8301 39.8184 54.9512 39.8516 55.123 39.8516C55.1777 39.8516 55.3281 39.8379 55.5742 39.8105L55.3574 41.0586C55.1191 41.1133 54.8789 41.1406 54.6367 41.1406C54.168 41.1406 53.8164 41.0312 53.582 40.8125C53.3516 40.5938 53.2363 40.2734 53.2363 39.8516C53.2363 39.6562 53.2949 39.2148 53.4121 38.5273L53.8398 36.0254H53.1719ZM57.584 32.4102H58.9668L58.7031 33.9336H57.3262L57.584 32.4102ZM57.1797 34.7773H58.5566L57.4902 41H56.1133L57.1797 34.7773ZM59.875 34.7773H61.1758L61.041 35.5332C61.5488 34.9355 62.0801 34.6367 62.6348 34.6367C63.377 34.6367 63.8066 35.002 63.9238 35.7324C64.1074 35.4121 64.3652 35.1504 64.6973 34.9473C65.0293 34.7402 65.3652 34.6367 65.7051 34.6367C66.1035 34.6367 66.4199 34.7656 66.6543 35.0234C66.8887 35.2773 67.0059 35.6328 67.0059 36.0898C67.0059 36.3047 66.9609 36.6738 66.8711 37.1973L66.2207 41H64.8379L65.4883 37.1973C65.5703 36.7207 65.6113 36.4512 65.6113 36.3887C65.6113 36.209 65.5664 36.0723 65.4766 35.9785C65.3867 35.8809 65.2637 35.832 65.1074 35.832C64.7754 35.832 64.4766 36.0391 64.2109 36.4531C64 36.7773 63.8242 37.3496 63.6836 38.1699L63.2031 41H61.8203L62.4648 37.2383C62.5391 36.8047 62.5762 36.5254 62.5762 36.4004C62.5762 36.2246 62.5273 36.0859 62.4297 35.9844C62.3359 35.8828 62.2148 35.832 62.0664 35.832C61.8672 35.832 61.6602 35.9277 61.4453 36.1191C61.2344 36.3066 61.0664 36.582 60.9414 36.9453C60.8672 37.1602 60.7793 37.5586 60.6777 38.1406L60.1855 41H58.8086L59.875 34.7773ZM72.5723 38.4102H69.1094V38.5684C69.1094 38.9863 69.207 39.3203 69.4023 39.5703C69.5977 39.8203 69.832 39.9453 70.1055 39.9453C70.5586 39.9453 70.916 39.6562 71.1777 39.0781L72.4141 39.3301C72.1719 39.9355 71.8496 40.3887 71.4473 40.6895C71.0449 40.9902 70.5938 41.1406 70.0938 41.1406C69.4297 41.1406 68.877 40.8828 68.4355 40.3672C67.998 39.8477 67.7793 39.1445 67.7793 38.2578C67.7793 37.3008 68.0293 36.459 68.5293 35.7324C69.0293 35.002 69.7285 34.6367 70.627 34.6367C71.2324 34.6367 71.7227 34.8672 72.0977 35.3281C72.4766 35.7852 72.666 36.4473 72.666 37.3145C72.666 37.7246 72.6348 38.0898 72.5723 38.4102ZM71.4062 37.3848L71.4121 37.2207C71.4121 36.748 71.3242 36.3984 71.1484 36.1719C70.9766 35.9453 70.752 35.832 70.4746 35.832C70.1934 35.832 69.9375 35.9629 69.707 36.2246C69.4805 36.4863 69.3281 36.873 69.25 37.3848H71.4062ZM73.3984 39.377H74.7578L74.4766 41H73.1172L73.3984 39.377ZM76.1406 39.377H77.5L77.2188 41H75.8594L76.1406 39.377ZM78.8828 39.377H80.2422L79.9609 41H78.6016L78.8828 39.377Z" fill="#111827"/>
</svg>
